<svg width="32" height="32" viewBox="0 0 32 32" fill="none" xmlns="http://www.w3.org/2000/svg"><path d="M18.77 11.51L13.55 2.93C13.21 2.35 12.6 2 11.93 2H5.34C3.89 2 2.98 3.56 3.69 4.82C5.01 7.15 6.87 9.14 9.12 10.6C9.88 11.19 10.82 11.51 11.79 11.51H18.77Z" fill="#0074BA"/><path d="M26.66 2H20.07C19.4 2 18.79 2.35 18.45 2.93L13.23 11.51H20.22C21.19 11.51 22.12 11.19 22.89 10.6C25.14 9.14 27 7.16 28.32 4.82C29.02 3.56 28.11 2 26.66 2Z" fill="#00A6ED"/><path d="M15.99 30C21.54 30 26.03 25.39 26.03 19.71C26.03 14.03 21.54 9.42 15.99 9.42C10.45 9.42 5.95 14.03 5.95 19.71C5.95 25.39 10.45 30 15.99 30Z" fill="#FFB02E"/><path d="M14.08 16.04C14.08 15.49 14.52 15.04 15.08 15.04H16C16.55 15.04 17 15.49 17 16.04V23C17 23.55 16.55 24 16 24C15.45 24 15 23.55 15 23V17.04C14.48 17 14.08 16.57 14.08 16.04Z" fill="#6D4534"/><path d="M16 28.76C13.64 28.76 11.42 27.82 9.76 26.11C8.09 24.4 7.17 22.13 7.17 19.71C7.17 17.29 8.09 15.02 9.76 13.31C13.2 9.78 18.8 9.78 22.25 13.31C25.69 16.84 25.69 22.58 22.25 26.11C20.57 27.82 18.35 28.76 16 28.76ZM15.99 11.89C14.04 11.89 12.08 12.65 10.6 14.18C9.16 15.66 8.37 17.62 8.37 19.71C8.37 21.8 9.16 23.76 10.6 25.24C12.04 26.72 13.96 27.53 15.99 27.53C18.03 27.53 19.94 26.72 21.38 25.24C24.35 22.19 24.35 17.23 21.38 14.18C19.9 12.65 17.95 11.89 15.99 11.89Z" fill="#FCD53F"/></svg>
