<svg width="32" height="32" viewBox="0 0 32 32" fill="none" xmlns="http://www.w3.org/2000/svg"><path d="M28.98 17L25.87 17.22C25.04 17.28 24.69 18.3 25.33 18.83L27.72 20.78C28.24 21.21 29.03 20.98 29.24 20.35L29.95 18.22C30.17 17.59 29.66 16.95 28.98 17Z" fill="#FCD53F"/><path d="M21.75 2.69L21.03 5.59C20.83 6.37 21.69 7 22.37 6.57L24.91 4.99C25.46 4.65 25.49 3.85 24.96 3.47L23.18 2.18C22.65 1.79 21.91 2.06 21.75 2.69Z" fill="#FCD53F"/><path d="M6.43 4.99L8.96 6.57C9.64 7 10.5 6.38 10.31 5.59L9.59 2.69C9.43 2.06 8.69 1.79 8.16 2.17L6.38 3.46C5.85 3.86 5.88 4.65 6.43 4.99Z" fill="#FCD53F"/><path d="M4.19 20.71L6.48 18.79C7.1 18.27 6.77 17.26 5.97 17.21L2.99 17C2.34 16.95 1.85 17.58 2.05 18.2L2.73 20.29C2.93 20.91 3.7 21.13 4.19 20.71Z" fill="#FCD53F"/><path d="M17.8 28L16.68 25.23C16.38 24.48 15.32 24.48 15.02 25.23L13.9 28C13.66 28.6 14.1 29.26 14.75 29.26H16.95C17.6 29.25 18.04 28.6 17.8 28Z" fill="#FCD53F"/><path d="M17.56 3.32L19.29 7.04C19.62 7.74 20.26 8.22 21.01 8.33L25.06 8.96C26.9 9.24 27.64 11.49 26.36 12.82L23.27 16C22.76 16.52 22.54 17.25 22.66 17.96L23.37 22.34C23.67 24.22 21.68 25.63 20.01 24.71L16.61 22.82C15.92 22.43 15.09 22.43 14.4 22.82L10.99 24.71C9.33 25.63 7.33 24.22 7.64 22.34L8.35 17.96C8.47 17.25 8.24 16.52 7.74 16L4.65 12.82C3.36 11.48 4.11 9.24 5.94 8.96L10 8.33C10.75 8.21 11.39 7.73 11.71 7.04L13.44 3.32C14.26 1.56 16.75 1.56 17.56 3.32Z" fill="#FCD53F"/></svg>
